<?xml version="1.0" encoding="UTF-8"?>
<svg id="Layer_1" xmlns="http://www.w3.org/2000/svg" version="1.1" viewBox="0 0 64 64">
  <!-- Generator: Adobe Illustrator 30.3.0, SVG Export Plug-In . SVG Version: 2.1.3 Build 182)  -->
  <defs>
    <style>
      .st0 {
        fill: #ff4e00;
      }

      .st1 {
        fill: #0c0c0c;
      }
    </style>
  </defs>
  <rect class="st0" width="64" height="64" rx="14" ry="14"/>
  <path id="Path_2" class="st1" d="M57.62,19.85c-.06-.06-.18-.04-.36,0-.24.05-.48.13-.72.21-.09.03-.19.07-.28.1-.28.1-.54.18-.81.26-.24.07-.57.17-.94.31h-.03c-.28.11-.57.2-.86.26-.36.1-.32.28-1.09.87-.08.06-.03.02-.59.41-.42.29-.83.58-1.25.86-.17.11-.43.28-.75.48-.62.38-.71.41-1.04.62-.53.34-1,.76-1.42,1.09-.67.51-.71.29-1.76.91-.68.39-1.32.85-1.9,1.37-.37.36-.77.68-1.2.97-.02.01-.04.03-.08.05-.38.22-.77.41-1.18.59-.51.25-.98.57-1.41.94-.03.02-.24.2-.51.45l-.09.08c-.35.3-.68.63-.98.98-.21.27-.39.55-.54.86-.72-.04-1.44.07-2.12.3-.3.12-.59.28-.86.47-.14.09-.26.2-.38.32-.27.28-.33.48-.72.71-.03.02-.02,0-.87.32-.75.27-.96.35-1.1.24-.12-.09-.03-.19-.2-.59-.13-.32-.26-.45-.2-.59.04-.08.11-.09.24-.16.33-.16.61-.4.81-.7.08-.12.13-.26.14-.4v-.02c-.05-.25-.16-.49-.31-.69-.09-.15-.12-.19-.12-.26,0-.09.07-.13.08-.24,0-.09-.02-.17-.08-.24v-.16c0-.11-.05-.21-.12-.29,0-.01-.03-.02-.05-.03-.04,0-.08-.01-.11-.05-.08-.11.18-.3.12-.49-.1-.11-.2-.22-.31-.31l-.08-.08s-.07-.07-.12-.14c-.1-.13-.08-.25-.16-.39-.06-.09-.14-.17-.24-.24-.27-.23-.27-.53-.39-.79-.17-.35-.51-.51-.95-.71-.7-.3-1.48-.36-2.21-.16-.77.24-1.43.74-1.86,1.41-.52.79-.76,1.74-.66,2.69,0,.19.03.37.08.55.29,1.06,1.13,1.14,1.81,2.21.39.61.7,1.51.39,1.81-.12.12-.27.09-.71.08-.25,0-.5,0-.74,0-.3.02-.29.04-.57.05-.25.02-.51,0-.76-.03-.17-.02-.27-.05-.67-.1-.12-.02-.18-.02-.27-.03h-.53c-.23,0-.47.05-.68.14-.42.18-.81.4-1.18.66-.34-.31-.75-.54-1.2-.67-.75-.19-1.55-.09-2.23.28h0s.39-1.52.16-2.76c.05-.52.21-1.03.46-1.49.1-.17.21-.33.34-.47.12.01.24-.01.35-.06.16.07.34.09.51.05.11.13.28.21.46.2,0,.04,0,.08.02.12.09.18.38.17.51.13.12-.02.21-.12.19-.24v-.04h0c.15-.01.29-.1.33-.24,0-.19.02-.37.08-.55.08-.39.08-.79,0-1.18-.03-.42-.36-.76-.79-.79-.39-.08-1.66-.16-2.44.24-.79.39-1.42,2.13-1.74,2.45-.47.32-.63.39-1.74,2.05-1.73,1.66-1.18,3.16-1.5,3.79s0,.87.16,1.1c.23.6.73,1.07,1.34,1.26,1.1,1,2.43,1.7,3.87,2.05,1.11.25,2.27.27,3.39.08.47,2.45,2.76,4.02,2.76,4.02,0,0,.95.87,1.1,1.42s.08,2.05.08,2.05h10.89c.38-1.16.7-2.35.95-3.55,0,0,2.21-4.66,1.74-7.89.32-.24.66-.47,1.03-.71.21-.14.42-.27.63-.39.59-.46,1.12-.99,1.58-1.58.42-.48.75-1.04.97-1.63.1-.3.17-.61.2-.92.63-.96,1.49-1.74,2.51-2.28.47-.25.93-.53,1.37-.84,1.8-1.28,1.68-2.21,2.08-2.7.67-.95,1.41-1.85,2.22-2.69h0s.09-.09.13-.13c.32,0,.63-.07.92-.21.36-.18.65-.47.84-.83,0,0,.56-.58,1.03-.67.37-.1.72-.27,1.03-.5.06-.07.1-.16.09-.25,0-.05-.02-.09-.06-.13l.18-.08s.65-.08.84-.25c.06-.06.07-.1.06-.12,0-.07-.11-.12-.22-.15.05-.01.1-.02.16-.03.02,0,.42-.04.48-.21,0-.03,0-.07,0-.11-.03-.06-.09-.09-.15-.11-.07-.02-.14-.03-.2-.03.12-.03.24-.06.35-.1.3-.11.34-.19.36-.22.04-.06.04-.15,0-.21M18.63,31.47h.01-.02"/>
</svg>